<?xml version="1.0" encoding="utf-8"?>
<!-- Generator: Adobe Illustrator 22.0.1, SVG Export Plug-In . SVG Version: 6.00 Build 0)  -->
<svg version="1.1" id="Layer_1" xmlns="http://www.w3.org/2000/svg" xmlns:xlink="http://www.w3.org/1999/xlink" x="0px" y="0px"
	 viewBox="0 0 360 360" style="enable-background:new 0 0 360 360;" xml:space="preserve">
<style type="text/css">
	.st0{fill:#FFFFFF;}
	.st1{fill:#EE3C96;}
</style>
<g>
	<g>
		<path class="st0" d="M64.8,219.2c-22.2,0-38.4-17.1-38.4-40.6c0-23.6,16.4-40.6,38.9-40.6c22.6,0,38.4,16.7,38.4,40.6
			C103.7,202.5,87.7,219.2,64.8,219.2z"/>
		<path class="st1" d="M65.4,142.4c20.1,0,33.8,14.9,33.8,36.1c0,20.7-13.2,36.1-34.4,36.1c-20.1,0-33.9-15.5-33.9-36.1
			C31,157.3,45.3,142.4,65.4,142.4 M65.4,133.4c-25.2,0-43.4,19-43.4,45.1c0,12.3,4.2,23.7,11.8,31.9c7.9,8.5,18.9,13.2,31.1,13.2
			c12.6,0,23.9-4.7,31.8-13.2c7.5-8.1,11.6-19.5,11.6-31.9c0-12.6-4.2-24-11.8-32.2C88.6,138,77.6,133.4,65.4,133.4L65.4,133.4z"/>
	</g>
	<g>
		<path class="st0" d="M183.6,219.2c-22.2,0-38.4-17.1-38.4-40.6c0-23.6,16.4-40.6,38.9-40.6c22.6,0,38.4,16.7,38.4,40.6
			C222.5,202.5,206.5,219.2,183.6,219.2z"/>
		<path class="st1" d="M184.1,142.4c20.1,0,33.9,14.9,33.9,36.1c0,20.7-13.2,36.1-34.4,36.1c-20.1,0-33.9-15.5-33.9-36.1
			C149.7,157.3,164.1,142.4,184.1,142.4 M184.1,133.4c-25.2,0-43.4,19-43.4,45.1c0,12.3,4.2,23.7,11.8,31.9
			c7.9,8.5,18.9,13.2,31.1,13.2c12.6,0,23.9-4.7,31.8-13.2c7.5-8.1,11.6-19.5,11.6-31.9c0-12.6-4.2-24-11.8-32.2
			C207.4,138,196.4,133.4,184.1,133.4L184.1,133.4z"/>
	</g>
	<g>
		<path class="st0" d="M302.3,219.2c-22.2,0-38.4-17.1-38.4-40.6c0-23.6,16.4-40.6,38.9-40.6c22.6,0,38.4,16.7,38.4,40.6
			C341.2,202.5,325.2,219.2,302.3,219.2z"/>
		<path class="st1" d="M302.9,142.4c20.1,0,33.9,14.9,33.9,36.1c0,20.7-13.2,36.1-34.4,36.1c-20.1,0-33.9-15.5-33.9-36.1
			C268.5,157.3,282.8,142.4,302.9,142.4 M302.9,133.4c-25.2,0-43.4,19-43.4,45.1c0,12.3,4.2,23.7,11.8,31.9
			c7.9,8.5,18.9,13.2,31.1,13.2c12.6,0,23.9-4.7,31.8-13.2c7.5-8.1,11.6-19.5,11.6-31.9c0-12.6-4.2-24-11.8-32.2
			C326.1,138,315.1,133.4,302.9,133.4L302.9,133.4z"/>
	</g>
</g>
</svg>
