<?xml version="1.0" encoding="utf-8"?>
<!-- Generator: Adobe Illustrator 22.0.1, SVG Export Plug-In . SVG Version: 6.00 Build 0)  -->
<svg version="1.1" id="Layer_1" xmlns="http://www.w3.org/2000/svg" xmlns:xlink="http://www.w3.org/1999/xlink" x="0px" y="0px"
	 viewBox="0 0 216 216" style="enable-background:new 0 0 216 216;" xml:space="preserve">
<style type="text/css">
	.st0{fill:#6D6E71;}
	.st1{fill:#FFFFFF;}
</style>
<g>
	<g>
		<rect x="4.5" y="4.2" class="st0" width="207" height="207"/>
		<path class="st1" d="M207,8.7v198H9V8.7H207 M216-0.3H0v216h216V-0.3L216-0.3z"/>
	</g>
	<g>
		<path class="st1" d="M109,39.5c0.2,0.2,0.3,0.4,0.5,0.6c18.6,18.6,37.2,37.2,55.8,55.8c0.4,0.4,0.6,0.8,0.6,1.4
			c0,12,0,23.9,0,35.9c0,0.2,0,0.5,0,0.7c0,0-0.1,0-0.1,0.1c-14.3-14.3-28.7-28.7-43.1-43.1c0,0.2-0.1,0.3-0.1,0.5
			c0,0.2,0,0.4,0,0.6c0,27.7,0,55.4,0,83.1c0,0.3,0,0.6,0,0.9c-9.2,0-18.4,0-27.6,0c0-28.2,0-56.4,0-84.6c-0.1,0-0.1,0-0.1,0
			c0,0,0,0-0.1,0c0,0,0,0-0.1,0c0,0-0.1,0.1-0.1,0.1c-14.2,14.2-28.4,28.4-42.5,42.5c0,0-0.1,0.1-0.1,0.1c0,0,0,0-0.1,0
			c0-0.2,0-0.5,0-0.7c0-9.2,0-18.4,0-27.7c0-2.8,0-5.7,0-8.5c0-0.5,0.1-0.8,0.4-1.1c6.1-6.1,12.3-12.3,18.4-18.4
			c12.6-12.6,25.1-25.1,37.7-37.7c0.1-0.1,0.2-0.3,0.4-0.4C108.9,39.5,108.9,39.5,109,39.5z"/>
	</g>
</g>
</svg>
